<svg width="850" height="300" viewBox="0 0 850 300" fill="none" xmlns="http://www.w3.org/2000/svg">
  <defs>
    <linearGradient id="areaGradient" x1="0" y1="0" x2="0" y2="1">
      <stop offset="0%" stop-color="#00FFAA" stop-opacity="0.4"/>
      <stop offset="100%" stop-color="#00FFAA" stop-opacity="0"/>
    </linearGradient>
    <filter id="glow">
      <feGaussianBlur stdDeviation="2" result="coloredBlur"/>
      <feMerge>
        <feMergeNode in="coloredBlur"/>
        <feMergeNode in="SourceGraphic"/>
      </feMerge>
    </filter>
  </defs>

  <style>
    :root { 
      --bg: #0d1117; 
      --accent: #00FFAA; 
      --text: #8b949e;
      --title-text: #00FFAA;
    }
    @media (prefers-color-scheme: light) {
      :root { 
        --bg: #ffffff; 
        --accent: #0969da; 
        --text: #57606a;
        --title-text: #1f2328;
      }
    }

    .bg { fill: var(--bg); stroke: #30363d; stroke-width: 1; }
    .grid-line { stroke: var(--text); stroke-opacity: 0.15; stroke-width: 1; stroke-dasharray: 3,3; }
    .axis-label { fill: var(--text); font-family: 'Segoe UI', Tahoma, sans-serif; font-size: 11px; }
    .title { fill: var(--title-text); font-family: 'Segoe UI', Tahoma, sans-serif; font-size: 18px; font-weight: bold; }
    
    .trend-line { 
      stroke: var(--accent); 
      stroke-width: 3; 
      fill: none; 
      filter: url(#glow);
      stroke-dasharray: 2000;
      stroke-dashoffset: 2000;
      animation: drawLine 2s forwards ease-in-out;
    }
    
    .trend-area { 
      fill: url(#areaGradient); 
      opacity: 0;
      animation: fadeIn 1.5s 0.5s forwards;
    }

    .dot { 
      opacity: 0; 
      animation: fadeIn 0.3s forwards;
      stroke: var(--accent);
      stroke-width: 1;
    }

    @keyframes drawLine { to { stroke-dashoffset: 0; } }
    @keyframes fadeIn { from { opacity: 0; } to { opacity: 1; } }
  </style>

  <rect width="850" height="300" rx="12" class="bg"/>
  
  <text x="30" y="40" class="title">Activity Trends</text>
  <text x="820" y="40" class="axis-label" text-anchor="end">Last 30 Days</text>
  
  <g class="grid">
    <line x1="50" y1="240.0" x2="810" y2="240.0" class="grid-line" /><text x="38" y="244.0" class="axis-label" text-anchor="end">0</text><line x1="50" y1="155.0" x2="810" y2="155.0" class="grid-line" /><text x="38" y="159.0" class="axis-label" text-anchor="end">80</text><line x1="50" y1="70.0" x2="810" y2="70.0" class="grid-line" /><text x="38" y="74.0" class="axis-label" text-anchor="end">160</text><line x1="50.0" y1="70" x2="50.0" y2="240" class="grid-line" /><text x="50.0" y="265" class="axis-label" text-anchor="middle">23</text><line x1="181.0344827586207" y1="70" x2="181.0344827586207" y2="240" class="grid-line" /><text x="181.0344827586207" y="265" class="axis-label" text-anchor="middle">28</text><line x1="312.0689655172414" y1="70" x2="312.0689655172414" y2="240" class="grid-line" /><text x="312.0689655172414" y="265" class="axis-label" text-anchor="middle">02</text><line x1="443.1034482758621" y1="70" x2="443.1034482758621" y2="240" class="grid-line" /><text x="443.1034482758621" y="265" class="axis-label" text-anchor="middle">07</text><line x1="574.1379310344828" y1="70" x2="574.1379310344828" y2="240" class="grid-line" /><text x="574.1379310344828" y="265" class="axis-label" text-anchor="middle">12</text><line x1="705.1724137931035" y1="70" x2="705.1724137931035" y2="240" class="grid-line" /><text x="705.1724137931035" y="265" class="axis-label" text-anchor="middle">17</text>
  </g>

  <path d="M 50.0,235.75 C 63.10344827586207,235.75 63.10344827586207,236.8125 76.20689655172414,236.8125 C 89.31034482758622,236.8125 89.31034482758622,233.625 102.41379310344828,233.625 C 115.51724137931035,233.625 115.51724137931035,232.5625 128.6206896551724,232.5625 C 141.72413793103448,232.5625 141.72413793103448,236.8125 154.82758620689657,236.8125 C 167.93103448275863,236.8125 167.93103448275863,237.875 181.0344827586207,237.875 C 194.13793103448276,237.875 194.13793103448276,238.9375 207.24137931034483,238.9375 C 220.34482758620692,238.9375 220.34482758620692,204.9375 233.44827586206898,204.9375 C 246.55172413793105,204.9375 246.55172413793105,236.8125 259.65517241379314,236.8125 C 272.7586206896552,236.8125 272.7586206896552,240.0 285.8620689655172,240.0 C 298.9655172413793,240.0 298.9655172413793,240.0 312.0689655172414,240.0 C 325.1724137931035,240.0 325.1724137931035,226.1875 338.2758620689655,226.1875 C 351.37931034482756,226.1875 351.37931034482756,159.25 364.48275862068965,159.25 C 377.58620689655174,159.25 377.58620689655174,238.9375 390.6896551724138,238.9375 C 403.7931034482759,238.9375 403.7931034482759,236.8125 416.89655172413796,236.8125 C 430.0,236.8125 430.0,221.9375 443.1034482758621,221.9375 C 456.2068965517242,221.9375 456.2068965517242,240.0 469.3103448275862,240.0 C 482.41379310344826,240.0 482.41379310344826,240.0 495.51724137931035,240.0 C 508.6206896551724,240.0 508.6206896551724,240.0 521.7241379310344,240.0 C 534.8275862068965,240.0 534.8275862068965,160.3125 547.9310344827586,160.3125 C 561.0344827586207,160.3125 561.0344827586207,219.8125 574.1379310344828,219.8125 C 587.2413793103449,219.8125 587.2413793103449,110.375 600.3448275862069,110.375 C 613.448275862069,110.375 613.448275862069,77.4375 626.551724137931,77.4375 C 639.6551724137931,77.4375 639.6551724137931,220.875 652.7586206896552,220.875 C 665.8620689655172,220.875 665.8620689655172,213.4375 678.9655172413793,213.4375 C 692.0689655172414,213.4375 692.0689655172414,240.0 705.1724137931035,240.0 C 718.2758620689656,240.0 718.2758620689656,240.0 731.3793103448276,240.0 C 744.4827586206897,240.0 744.4827586206897,229.375 757.5862068965517,229.375 C 770.6896551724138,229.375 770.6896551724138,221.9375 783.7931034482759,221.9375 C 796.8965517241379,221.9375 796.8965517241379,240.0 810.0,240.0 L 810.0,240 L 50.0,240 Z" class="trend-area"/>
  <path d="M 50.0,235.75 C 63.10344827586207,235.75 63.10344827586207,236.8125 76.20689655172414,236.8125 C 89.31034482758622,236.8125 89.31034482758622,233.625 102.41379310344828,233.625 C 115.51724137931035,233.625 115.51724137931035,232.5625 128.6206896551724,232.5625 C 141.72413793103448,232.5625 141.72413793103448,236.8125 154.82758620689657,236.8125 C 167.93103448275863,236.8125 167.93103448275863,237.875 181.0344827586207,237.875 C 194.13793103448276,237.875 194.13793103448276,238.9375 207.24137931034483,238.9375 C 220.34482758620692,238.9375 220.34482758620692,204.9375 233.44827586206898,204.9375 C 246.55172413793105,204.9375 246.55172413793105,236.8125 259.65517241379314,236.8125 C 272.7586206896552,236.8125 272.7586206896552,240.0 285.8620689655172,240.0 C 298.9655172413793,240.0 298.9655172413793,240.0 312.0689655172414,240.0 C 325.1724137931035,240.0 325.1724137931035,226.1875 338.2758620689655,226.1875 C 351.37931034482756,226.1875 351.37931034482756,159.25 364.48275862068965,159.25 C 377.58620689655174,159.25 377.58620689655174,238.9375 390.6896551724138,238.9375 C 403.7931034482759,238.9375 403.7931034482759,236.8125 416.89655172413796,236.8125 C 430.0,236.8125 430.0,221.9375 443.1034482758621,221.9375 C 456.2068965517242,221.9375 456.2068965517242,240.0 469.3103448275862,240.0 C 482.41379310344826,240.0 482.41379310344826,240.0 495.51724137931035,240.0 C 508.6206896551724,240.0 508.6206896551724,240.0 521.7241379310344,240.0 C 534.8275862068965,240.0 534.8275862068965,160.3125 547.9310344827586,160.3125 C 561.0344827586207,160.3125 561.0344827586207,219.8125 574.1379310344828,219.8125 C 587.2413793103449,219.8125 587.2413793103449,110.375 600.3448275862069,110.375 C 613.448275862069,110.375 613.448275862069,77.4375 626.551724137931,77.4375 C 639.6551724137931,77.4375 639.6551724137931,220.875 652.7586206896552,220.875 C 665.8620689655172,220.875 665.8620689655172,213.4375 678.9655172413793,213.4375 C 692.0689655172414,213.4375 692.0689655172414,240.0 705.1724137931035,240.0 C 718.2758620689656,240.0 718.2758620689656,240.0 731.3793103448276,240.0 C 744.4827586206897,240.0 744.4827586206897,229.375 757.5862068965517,229.375 C 770.6896551724138,229.375 770.6896551724138,221.9375 783.7931034482759,221.9375 C 796.8965517241379,221.9375 796.8965517241379,240.0 810.0,240.0" class="trend-line"/>
  
  <g class="dots">
    <circle cx="50.0" cy="235.75" r="3.5" fill="white" class="dot" style="animation-delay: 0.0s;"/><circle cx="76.20689655172414" cy="236.8125" r="3.5" fill="white" class="dot" style="animation-delay: 0.02666666666666667s;"/><circle cx="102.41379310344828" cy="233.625" r="3.5" fill="white" class="dot" style="animation-delay: 0.05333333333333334s;"/><circle cx="128.6206896551724" cy="232.5625" r="3.5" fill="white" class="dot" style="animation-delay: 0.08000000000000002s;"/><circle cx="154.82758620689657" cy="236.8125" r="3.5" fill="white" class="dot" style="animation-delay: 0.10666666666666667s;"/><circle cx="181.0344827586207" cy="237.875" r="3.5" fill="white" class="dot" style="animation-delay: 0.13333333333333333s;"/><circle cx="207.24137931034483" cy="238.9375" r="3.5" fill="white" class="dot" style="animation-delay: 0.16000000000000003s;"/><circle cx="233.44827586206898" cy="204.9375" r="3.5" fill="white" class="dot" style="animation-delay: 0.18666666666666668s;"/><circle cx="259.65517241379314" cy="236.8125" r="3.5" fill="white" class="dot" style="animation-delay: 0.21333333333333335s;"/><circle cx="285.8620689655172" cy="240.0" r="3.5" fill="white" class="dot" style="animation-delay: 0.24s;"/><circle cx="312.0689655172414" cy="240.0" r="3.5" fill="white" class="dot" style="animation-delay: 0.26666666666666666s;"/><circle cx="338.2758620689655" cy="226.1875" r="3.5" fill="white" class="dot" style="animation-delay: 0.29333333333333333s;"/><circle cx="364.48275862068965" cy="159.25" r="3.5" fill="white" class="dot" style="animation-delay: 0.32000000000000006s;"/><circle cx="390.6896551724138" cy="238.9375" r="3.5" fill="white" class="dot" style="animation-delay: 0.3466666666666667s;"/><circle cx="416.89655172413796" cy="236.8125" r="3.5" fill="white" class="dot" style="animation-delay: 0.37333333333333335s;"/><circle cx="443.1034482758621" cy="221.9375" r="3.5" fill="white" class="dot" style="animation-delay: 0.4s;"/><circle cx="469.3103448275862" cy="240.0" r="3.5" fill="white" class="dot" style="animation-delay: 0.4266666666666667s;"/><circle cx="495.51724137931035" cy="240.0" r="3.5" fill="white" class="dot" style="animation-delay: 0.45333333333333337s;"/><circle cx="521.7241379310344" cy="240.0" r="3.5" fill="white" class="dot" style="animation-delay: 0.48s;"/><circle cx="547.9310344827586" cy="160.3125" r="3.5" fill="white" class="dot" style="animation-delay: 0.5066666666666667s;"/><circle cx="574.1379310344828" cy="219.8125" r="3.5" fill="white" class="dot" style="animation-delay: 0.5333333333333333s;"/><circle cx="600.3448275862069" cy="110.375" r="3.5" fill="white" class="dot" style="animation-delay: 0.5599999999999999s;"/><circle cx="626.551724137931" cy="77.4375" r="3.5" fill="white" class="dot" style="animation-delay: 0.5866666666666667s;"/><circle cx="652.7586206896552" cy="220.875" r="3.5" fill="white" class="dot" style="animation-delay: 0.6133333333333334s;"/><circle cx="678.9655172413793" cy="213.4375" r="3.5" fill="white" class="dot" style="animation-delay: 0.6400000000000001s;"/><circle cx="705.1724137931035" cy="240.0" r="3.5" fill="white" class="dot" style="animation-delay: 0.6666666666666667s;"/><circle cx="731.3793103448276" cy="240.0" r="3.5" fill="white" class="dot" style="animation-delay: 0.6933333333333334s;"/><circle cx="757.5862068965517" cy="229.375" r="3.5" fill="white" class="dot" style="animation-delay: 0.7200000000000001s;"/><circle cx="783.7931034482759" cy="221.9375" r="3.5" fill="white" class="dot" style="animation-delay: 0.7466666666666667s;"/><circle cx="810.0" cy="240.0" r="3.5" fill="white" class="dot" style="animation-delay: 0.7733333333333334s;"/>
  </g>
</svg>