<svg width="850" height="131" viewBox="0 0 850 131" fill="none" xmlns="http://www.w3.org/2000/svg">
  <defs>
    <linearGradient id="sc-grad" x1="0" y1="0" x2="1" y2="0">
      <stop offset="0%" stop-color="#00FFAA" stop-opacity="0" />
      <stop offset="100%" stop-color="#00FFAA" stop-opacity="0.6" />
    </linearGradient>
  </defs>
  <style>
    .sc-bg { fill: #0d1117; }
    .sc-border { stroke: #30363d; }
    .sc-cell { fill: #161b22; opacity: 0.15; }
    
    /* REVEAL KEYFRAMES: Gradient Cooling Trail */
    .sc-l-0 { animation: sc-rev-0 12.0s infinite; }
    .sc-l-1 { animation: sc-rev-1 12.0s infinite; }
    .sc-l-2 { animation: sc-rev-2 12.0s infinite; }
    .sc-l-3 { animation: sc-rev-3 12.0s infinite; }
    .sc-l-4 { animation: sc-rev-4 12.0s infinite; }

    @keyframes sc-rev-0 {
      0% { fill: #fff; opacity: 1; filter: drop-shadow(0 0 6px #00FFAA); }
      1% { fill: #00FFAA; opacity: 0.8; filter: drop-shadow(0 0 4px #00FFAA); }
      3% { fill: #00FFAA; opacity: 0.4; filter: drop-shadow(0 0 2px #00FFAA); }
      5%, 100% { fill: #161b22; opacity: 0.15; filter: none; }
    }
    
    /* Multistage gradient cooling for contribution levels */
    @keyframes sc-rev-1 { 
      0% { fill: #fff; opacity: 1; filter: brightness(2) drop-shadow(0 0 10px #00FFAA); } 
      2% { fill: #fff; opacity: 1; filter: brightness(1.5) drop-shadow(0 0 8px #00FFAA); }
      4% { fill: #00FFAA; opacity: 1; filter: drop-shadow(0 0 6px #00FFAA); }
      6% { fill: #0e4429; opacity: 1; filter: drop-shadow(0 0 4px #0e4429); }
      10%, 75% { fill: #0e4429; opacity: 1; filter: none; } 
      85%, 100% { fill: #161b22; opacity: 0.15; } 
    }
    @keyframes sc-rev-2 { 
      0% { fill: #fff; opacity: 1; filter: brightness(2) drop-shadow(0 0 10px #00FFAA); } 
      2% { fill: #fff; opacity: 1; filter: brightness(1.5) drop-shadow(0 0 8px #00FFAA); }
      4% { fill: #00FFAA; opacity: 1; filter: drop-shadow(0 0 6px #00FFAA); }
      6% { fill: #006d3a; opacity: 1; filter: drop-shadow(0 0 4px #006d3a); }
      10%, 75% { fill: #006d3a; opacity: 1; filter: none; } 
      85%, 100% { fill: #161b22; opacity: 0.15; } 
    }
    @keyframes sc-rev-3 { 
      0% { fill: #fff; opacity: 1; filter: brightness(2) drop-shadow(0 0 10px #00FFAA); } 
      2% { fill: #fff; opacity: 1; filter: brightness(1.5) drop-shadow(0 0 8px #00FFAA); }
      4% { fill: #00FFAA; opacity: 1; filter: drop-shadow(0 0 6px #00FFAA); }
      6% { fill: #26a641; opacity: 1; filter: drop-shadow(0 0 4px #26a641); }
      10%, 75% { fill: #26a641; opacity: 1; filter: none; } 
      85%, 100% { fill: #161b22; opacity: 0.15; } 
    }
    @keyframes sc-rev-4 { 
      0% { fill: #fff; opacity: 1; filter: brightness(2) drop-shadow(0 0 10px #00FFAA); } 
      2% { fill: #fff; opacity: 1; filter: brightness(1.5) drop-shadow(0 0 8px #00FFAA); }
      4% { fill: #00FFAA; opacity: 1; filter: drop-shadow(0 0 6px #00FFAA); }
      6% { fill: #39d353; opacity: 1; filter: drop-shadow(0 0 4px #39d353); }
      10%, 75% { fill: #39d353; opacity: 1; filter: none; } 
      85%, 100% { fill: #161b22; opacity: 0.15; } 
    }

    @media (prefers-color-scheme: light) {
      .sc-bg { fill: #ffffff; }
      .sc-border { stroke: #d0d7de; }
      .sc-cell { fill: #ebedf0; opacity: 1; }
      .sc-l-0 { animation: sc-rev-l0 12.0s infinite; }
      .sc-l-1 { animation: sc-rev-l1 12.0s infinite; }
      .sc-l-2 { animation: sc-rev-l2 12.0s infinite; }
      .sc-l-3 { animation: sc-rev-l3 12.0s infinite; }
      .sc-l-4 { animation: sc-rev-l4 12.0s infinite; }
    }
    
    @keyframes sc-rev-l0 { 
      0% { fill: #fff; opacity: 1; filter: drop-shadow(0 0 8px #00FFAA); } 
      2% { fill: #00FFAA; opacity: 0.8; filter: drop-shadow(0 0 4px #00FFAA); } 
      5%, 100% { fill: #ebedf0; opacity: 1; filter: none; } 
    }
    @keyframes sc-rev-l1 { 
      0% { fill: #fff; opacity: 1; filter: drop-shadow(0 0 10px #00FFAA); } 
      3% { fill: #00FFAA; opacity: 0.8; filter: drop-shadow(0 0 6px #00FFAA); } 
      8%, 75% { fill: #9be9a8; opacity: 1; filter: none; } 
      85%, 100% { fill: #ebedf0; opacity: 1; } 
    }
    @keyframes sc-rev-l2 { 
      0% { fill: #fff; opacity: 1; filter: drop-shadow(0 0 10px #00FFAA); } 
      3% { fill: #00FFAA; opacity: 0.8; filter: drop-shadow(0 0 6px #00FFAA); } 
      8%, 75% { fill: #40c463; opacity: 1; filter: none; } 
      85%, 100% { fill: #ebedf0; opacity: 1; } 
    }
    @keyframes sc-rev-l3 { 
      0% { fill: #fff; opacity: 1; filter: drop-shadow(0 0 10px #00FFAA); } 
      3% { fill: #00FFAA; opacity: 0.8; filter: drop-shadow(0 0 6px #00FFAA); } 
      8%, 75% { fill: #30a14e; opacity: 1; filter: none; } 
      85%, 100% { fill: #ebedf0; opacity: 1; } 
    }
    @keyframes sc-rev-l4 { 
      0% { fill: #fff; opacity: 1; filter: drop-shadow(0 0 10px #00FFAA); } 
      3% { fill: #00FFAA; opacity: 0.8; filter: drop-shadow(0 0 6px #00FFAA); } 
      8%, 75% { fill: #216e39; opacity: 1; filter: none; } 
      85%, 100% { fill: #ebedf0; opacity: 1; } 
    }

    /* BEAM */
    @keyframes sc-beam-move {
      0% { transform: translateX(0); opacity: 0; }
      1% { opacity: 1; }
      32% { opacity: 1; }
      33.3% { transform: translateX(663px); opacity: 0; }
      100% { transform: translateX(663px); opacity: 0; }
    }
    .sc-beam { animation: sc-beam-move 12.0s infinite linear; }
  </style>

  <rect width="850" height="131" rx="12" class="sc-bg sc-border" stroke-width="1.5"/>
  
  <g id="sc-grid">
    <rect x="87" y="25" width="10" height="10" rx="2" class="sc-cell sc-l-0" style="animation-delay: 0.000s;"/>
<rect x="87" y="38" width="10" height="10" rx="2" class="sc-cell sc-l-0" style="animation-delay: 0.000s;"/>
<rect x="87" y="51" width="10" height="10" rx="2" class="sc-cell sc-l-0" style="animation-delay: 0.000s;"/>
<rect x="87" y="64" width="10" height="10" rx="2" class="sc-cell sc-l-0" style="animation-delay: 0.000s;"/>
<rect x="87" y="77" width="10" height="10" rx="2" class="sc-cell sc-l-0" style="animation-delay: 0.000s;"/>
<rect x="87" y="90" width="10" height="10" rx="2" class="sc-cell sc-l-0" style="animation-delay: 0.000s;"/>
<rect x="87" y="103" width="10" height="10" rx="2" class="sc-cell sc-l-0" style="animation-delay: 0.000s;"/>
<rect x="100" y="25" width="10" height="10" rx="2" class="sc-cell sc-l-0" style="animation-delay: 0.078s;"/>
<rect x="100" y="38" width="10" height="10" rx="2" class="sc-cell sc-l-0" style="animation-delay: 0.078s;"/>
<rect x="100" y="51" width="10" height="10" rx="2" class="sc-cell sc-l-0" style="animation-delay: 0.078s;"/>
<rect x="100" y="64" width="10" height="10" rx="2" class="sc-cell sc-l-0" style="animation-delay: 0.078s;"/>
<rect x="100" y="77" width="10" height="10" rx="2" class="sc-cell sc-l-0" style="animation-delay: 0.078s;"/>
<rect x="100" y="90" width="10" height="10" rx="2" class="sc-cell sc-l-0" style="animation-delay: 0.078s;"/>
<rect x="100" y="103" width="10" height="10" rx="2" class="sc-cell sc-l-0" style="animation-delay: 0.078s;"/>
<rect x="113" y="25" width="10" height="10" rx="2" class="sc-cell sc-l-0" style="animation-delay: 0.157s;"/>
<rect x="113" y="38" width="10" height="10" rx="2" class="sc-cell sc-l-0" style="animation-delay: 0.157s;"/>
<rect x="113" y="51" width="10" height="10" rx="2" class="sc-cell sc-l-0" style="animation-delay: 0.157s;"/>
<rect x="113" y="64" width="10" height="10" rx="2" class="sc-cell sc-l-0" style="animation-delay: 0.157s;"/>
<rect x="113" y="77" width="10" height="10" rx="2" class="sc-cell sc-l-0" style="animation-delay: 0.157s;"/>
<rect x="113" y="90" width="10" height="10" rx="2" class="sc-cell sc-l-0" style="animation-delay: 0.157s;"/>
<rect x="113" y="103" width="10" height="10" rx="2" class="sc-cell sc-l-0" style="animation-delay: 0.157s;"/>
<rect x="126" y="25" width="10" height="10" rx="2" class="sc-cell sc-l-0" style="animation-delay: 0.235s;"/>
<rect x="126" y="38" width="10" height="10" rx="2" class="sc-cell sc-l-0" style="animation-delay: 0.235s;"/>
<rect x="126" y="51" width="10" height="10" rx="2" class="sc-cell sc-l-0" style="animation-delay: 0.235s;"/>
<rect x="126" y="64" width="10" height="10" rx="2" class="sc-cell sc-l-0" style="animation-delay: 0.235s;"/>
<rect x="126" y="77" width="10" height="10" rx="2" class="sc-cell sc-l-0" style="animation-delay: 0.235s;"/>
<rect x="126" y="90" width="10" height="10" rx="2" class="sc-cell sc-l-0" style="animation-delay: 0.235s;"/>
<rect x="126" y="103" width="10" height="10" rx="2" class="sc-cell sc-l-0" style="animation-delay: 0.235s;"/>
<rect x="139" y="25" width="10" height="10" rx="2" class="sc-cell sc-l-0" style="animation-delay: 0.314s;"/>
<rect x="139" y="38" width="10" height="10" rx="2" class="sc-cell sc-l-0" style="animation-delay: 0.314s;"/>
<rect x="139" y="51" width="10" height="10" rx="2" class="sc-cell sc-l-0" style="animation-delay: 0.314s;"/>
<rect x="139" y="64" width="10" height="10" rx="2" class="sc-cell sc-l-0" style="animation-delay: 0.314s;"/>
<rect x="139" y="77" width="10" height="10" rx="2" class="sc-cell sc-l-0" style="animation-delay: 0.314s;"/>
<rect x="139" y="90" width="10" height="10" rx="2" class="sc-cell sc-l-0" style="animation-delay: 0.314s;"/>
<rect x="139" y="103" width="10" height="10" rx="2" class="sc-cell sc-l-0" style="animation-delay: 0.314s;"/>
<rect x="152" y="25" width="10" height="10" rx="2" class="sc-cell sc-l-0" style="animation-delay: 0.392s;"/>
<rect x="152" y="38" width="10" height="10" rx="2" class="sc-cell sc-l-0" style="animation-delay: 0.392s;"/>
<rect x="152" y="51" width="10" height="10" rx="2" class="sc-cell sc-l-0" style="animation-delay: 0.392s;"/>
<rect x="152" y="64" width="10" height="10" rx="2" class="sc-cell sc-l-0" style="animation-delay: 0.392s;"/>
<rect x="152" y="77" width="10" height="10" rx="2" class="sc-cell sc-l-0" style="animation-delay: 0.392s;"/>
<rect x="152" y="90" width="10" height="10" rx="2" class="sc-cell sc-l-0" style="animation-delay: 0.392s;"/>
<rect x="152" y="103" width="10" height="10" rx="2" class="sc-cell sc-l-0" style="animation-delay: 0.392s;"/>
<rect x="165" y="25" width="10" height="10" rx="2" class="sc-cell sc-l-0" style="animation-delay: 0.471s;"/>
<rect x="165" y="38" width="10" height="10" rx="2" class="sc-cell sc-l-0" style="animation-delay: 0.471s;"/>
<rect x="165" y="51" width="10" height="10" rx="2" class="sc-cell sc-l-0" style="animation-delay: 0.471s;"/>
<rect x="165" y="64" width="10" height="10" rx="2" class="sc-cell sc-l-0" style="animation-delay: 0.471s;"/>
<rect x="165" y="77" width="10" height="10" rx="2" class="sc-cell sc-l-0" style="animation-delay: 0.471s;"/>
<rect x="165" y="90" width="10" height="10" rx="2" class="sc-cell sc-l-0" style="animation-delay: 0.471s;"/>
<rect x="165" y="103" width="10" height="10" rx="2" class="sc-cell sc-l-0" style="animation-delay: 0.471s;"/>
<rect x="178" y="25" width="10" height="10" rx="2" class="sc-cell sc-l-0" style="animation-delay: 0.549s;"/>
<rect x="178" y="38" width="10" height="10" rx="2" class="sc-cell sc-l-0" style="animation-delay: 0.549s;"/>
<rect x="178" y="51" width="10" height="10" rx="2" class="sc-cell sc-l-0" style="animation-delay: 0.549s;"/>
<rect x="178" y="64" width="10" height="10" rx="2" class="sc-cell sc-l-0" style="animation-delay: 0.549s;"/>
<rect x="178" y="77" width="10" height="10" rx="2" class="sc-cell sc-l-0" style="animation-delay: 0.549s;"/>
<rect x="178" y="90" width="10" height="10" rx="2" class="sc-cell sc-l-0" style="animation-delay: 0.549s;"/>
<rect x="178" y="103" width="10" height="10" rx="2" class="sc-cell sc-l-0" style="animation-delay: 0.549s;"/>
<rect x="191" y="25" width="10" height="10" rx="2" class="sc-cell sc-l-0" style="animation-delay: 0.627s;"/>
<rect x="191" y="38" width="10" height="10" rx="2" class="sc-cell sc-l-0" style="animation-delay: 0.627s;"/>
<rect x="191" y="51" width="10" height="10" rx="2" class="sc-cell sc-l-0" style="animation-delay: 0.627s;"/>
<rect x="191" y="64" width="10" height="10" rx="2" class="sc-cell sc-l-0" style="animation-delay: 0.627s;"/>
<rect x="191" y="77" width="10" height="10" rx="2" class="sc-cell sc-l-0" style="animation-delay: 0.627s;"/>
<rect x="191" y="90" width="10" height="10" rx="2" class="sc-cell sc-l-0" style="animation-delay: 0.627s;"/>
<rect x="191" y="103" width="10" height="10" rx="2" class="sc-cell sc-l-0" style="animation-delay: 0.627s;"/>
<rect x="204" y="25" width="10" height="10" rx="2" class="sc-cell sc-l-0" style="animation-delay: 0.706s;"/>
<rect x="204" y="38" width="10" height="10" rx="2" class="sc-cell sc-l-0" style="animation-delay: 0.706s;"/>
<rect x="204" y="51" width="10" height="10" rx="2" class="sc-cell sc-l-0" style="animation-delay: 0.706s;"/>
<rect x="204" y="64" width="10" height="10" rx="2" class="sc-cell sc-l-0" style="animation-delay: 0.706s;"/>
<rect x="204" y="77" width="10" height="10" rx="2" class="sc-cell sc-l-0" style="animation-delay: 0.706s;"/>
<rect x="204" y="90" width="10" height="10" rx="2" class="sc-cell sc-l-0" style="animation-delay: 0.706s;"/>
<rect x="204" y="103" width="10" height="10" rx="2" class="sc-cell sc-l-0" style="animation-delay: 0.706s;"/>
<rect x="217" y="25" width="10" height="10" rx="2" class="sc-cell sc-l-0" style="animation-delay: 0.784s;"/>
<rect x="217" y="38" width="10" height="10" rx="2" class="sc-cell sc-l-0" style="animation-delay: 0.784s;"/>
<rect x="217" y="51" width="10" height="10" rx="2" class="sc-cell sc-l-0" style="animation-delay: 0.784s;"/>
<rect x="217" y="64" width="10" height="10" rx="2" class="sc-cell sc-l-0" style="animation-delay: 0.784s;"/>
<rect x="217" y="77" width="10" height="10" rx="2" class="sc-cell sc-l-0" style="animation-delay: 0.784s;"/>
<rect x="217" y="90" width="10" height="10" rx="2" class="sc-cell sc-l-0" style="animation-delay: 0.784s;"/>
<rect x="217" y="103" width="10" height="10" rx="2" class="sc-cell sc-l-0" style="animation-delay: 0.784s;"/>
<rect x="230" y="25" width="10" height="10" rx="2" class="sc-cell sc-l-0" style="animation-delay: 0.863s;"/>
<rect x="230" y="38" width="10" height="10" rx="2" class="sc-cell sc-l-0" style="animation-delay: 0.863s;"/>
<rect x="230" y="51" width="10" height="10" rx="2" class="sc-cell sc-l-0" style="animation-delay: 0.863s;"/>
<rect x="230" y="64" width="10" height="10" rx="2" class="sc-cell sc-l-0" style="animation-delay: 0.863s;"/>
<rect x="230" y="77" width="10" height="10" rx="2" class="sc-cell sc-l-0" style="animation-delay: 0.863s;"/>
<rect x="230" y="90" width="10" height="10" rx="2" class="sc-cell sc-l-0" style="animation-delay: 0.863s;"/>
<rect x="230" y="103" width="10" height="10" rx="2" class="sc-cell sc-l-0" style="animation-delay: 0.863s;"/>
<rect x="243" y="25" width="10" height="10" rx="2" class="sc-cell sc-l-0" style="animation-delay: 0.941s;"/>
<rect x="243" y="38" width="10" height="10" rx="2" class="sc-cell sc-l-0" style="animation-delay: 0.941s;"/>
<rect x="243" y="51" width="10" height="10" rx="2" class="sc-cell sc-l-0" style="animation-delay: 0.941s;"/>
<rect x="243" y="64" width="10" height="10" rx="2" class="sc-cell sc-l-0" style="animation-delay: 0.941s;"/>
<rect x="243" y="77" width="10" height="10" rx="2" class="sc-cell sc-l-0" style="animation-delay: 0.941s;"/>
<rect x="243" y="90" width="10" height="10" rx="2" class="sc-cell sc-l-0" style="animation-delay: 0.941s;"/>
<rect x="243" y="103" width="10" height="10" rx="2" class="sc-cell sc-l-0" style="animation-delay: 0.941s;"/>
<rect x="256" y="25" width="10" height="10" rx="2" class="sc-cell sc-l-0" style="animation-delay: 1.020s;"/>
<rect x="256" y="38" width="10" height="10" rx="2" class="sc-cell sc-l-0" style="animation-delay: 1.020s;"/>
<rect x="256" y="51" width="10" height="10" rx="2" class="sc-cell sc-l-0" style="animation-delay: 1.020s;"/>
<rect x="256" y="64" width="10" height="10" rx="2" class="sc-cell sc-l-0" style="animation-delay: 1.020s;"/>
<rect x="256" y="77" width="10" height="10" rx="2" class="sc-cell sc-l-0" style="animation-delay: 1.020s;"/>
<rect x="256" y="90" width="10" height="10" rx="2" class="sc-cell sc-l-0" style="animation-delay: 1.020s;"/>
<rect x="256" y="103" width="10" height="10" rx="2" class="sc-cell sc-l-0" style="animation-delay: 1.020s;"/>
<rect x="269" y="25" width="10" height="10" rx="2" class="sc-cell sc-l-0" style="animation-delay: 1.098s;"/>
<rect x="269" y="38" width="10" height="10" rx="2" class="sc-cell sc-l-0" style="animation-delay: 1.098s;"/>
<rect x="269" y="51" width="10" height="10" rx="2" class="sc-cell sc-l-0" style="animation-delay: 1.098s;"/>
<rect x="269" y="64" width="10" height="10" rx="2" class="sc-cell sc-l-0" style="animation-delay: 1.098s;"/>
<rect x="269" y="77" width="10" height="10" rx="2" class="sc-cell sc-l-0" style="animation-delay: 1.098s;"/>
<rect x="269" y="90" width="10" height="10" rx="2" class="sc-cell sc-l-0" style="animation-delay: 1.098s;"/>
<rect x="269" y="103" width="10" height="10" rx="2" class="sc-cell sc-l-0" style="animation-delay: 1.098s;"/>
<rect x="282" y="25" width="10" height="10" rx="2" class="sc-cell sc-l-0" style="animation-delay: 1.176s;"/>
<rect x="282" y="38" width="10" height="10" rx="2" class="sc-cell sc-l-0" style="animation-delay: 1.176s;"/>
<rect x="282" y="51" width="10" height="10" rx="2" class="sc-cell sc-l-0" style="animation-delay: 1.176s;"/>
<rect x="282" y="64" width="10" height="10" rx="2" class="sc-cell sc-l-0" style="animation-delay: 1.176s;"/>
<rect x="282" y="77" width="10" height="10" rx="2" class="sc-cell sc-l-0" style="animation-delay: 1.176s;"/>
<rect x="282" y="90" width="10" height="10" rx="2" class="sc-cell sc-l-0" style="animation-delay: 1.176s;"/>
<rect x="282" y="103" width="10" height="10" rx="2" class="sc-cell sc-l-0" style="animation-delay: 1.176s;"/>
<rect x="295" y="25" width="10" height="10" rx="2" class="sc-cell sc-l-0" style="animation-delay: 1.255s;"/>
<rect x="295" y="38" width="10" height="10" rx="2" class="sc-cell sc-l-0" style="animation-delay: 1.255s;"/>
<rect x="295" y="51" width="10" height="10" rx="2" class="sc-cell sc-l-0" style="animation-delay: 1.255s;"/>
<rect x="295" y="64" width="10" height="10" rx="2" class="sc-cell sc-l-0" style="animation-delay: 1.255s;"/>
<rect x="295" y="77" width="10" height="10" rx="2" class="sc-cell sc-l-0" style="animation-delay: 1.255s;"/>
<rect x="295" y="90" width="10" height="10" rx="2" class="sc-cell sc-l-0" style="animation-delay: 1.255s;"/>
<rect x="295" y="103" width="10" height="10" rx="2" class="sc-cell sc-l-0" style="animation-delay: 1.255s;"/>
<rect x="308" y="25" width="10" height="10" rx="2" class="sc-cell sc-l-0" style="animation-delay: 1.333s;"/>
<rect x="308" y="38" width="10" height="10" rx="2" class="sc-cell sc-l-0" style="animation-delay: 1.333s;"/>
<rect x="308" y="51" width="10" height="10" rx="2" class="sc-cell sc-l-0" style="animation-delay: 1.333s;"/>
<rect x="308" y="64" width="10" height="10" rx="2" class="sc-cell sc-l-0" style="animation-delay: 1.333s;"/>
<rect x="308" y="77" width="10" height="10" rx="2" class="sc-cell sc-l-0" style="animation-delay: 1.333s;"/>
<rect x="308" y="90" width="10" height="10" rx="2" class="sc-cell sc-l-0" style="animation-delay: 1.333s;"/>
<rect x="308" y="103" width="10" height="10" rx="2" class="sc-cell sc-l-0" style="animation-delay: 1.333s;"/>
<rect x="321" y="25" width="10" height="10" rx="2" class="sc-cell sc-l-0" style="animation-delay: 1.412s;"/>
<rect x="321" y="38" width="10" height="10" rx="2" class="sc-cell sc-l-0" style="animation-delay: 1.412s;"/>
<rect x="321" y="51" width="10" height="10" rx="2" class="sc-cell sc-l-0" style="animation-delay: 1.412s;"/>
<rect x="321" y="64" width="10" height="10" rx="2" class="sc-cell sc-l-0" style="animation-delay: 1.412s;"/>
<rect x="321" y="77" width="10" height="10" rx="2" class="sc-cell sc-l-0" style="animation-delay: 1.412s;"/>
<rect x="321" y="90" width="10" height="10" rx="2" class="sc-cell sc-l-0" style="animation-delay: 1.412s;"/>
<rect x="321" y="103" width="10" height="10" rx="2" class="sc-cell sc-l-0" style="animation-delay: 1.412s;"/>
<rect x="334" y="25" width="10" height="10" rx="2" class="sc-cell sc-l-0" style="animation-delay: 1.490s;"/>
<rect x="334" y="38" width="10" height="10" rx="2" class="sc-cell sc-l-0" style="animation-delay: 1.490s;"/>
<rect x="334" y="51" width="10" height="10" rx="2" class="sc-cell sc-l-0" style="animation-delay: 1.490s;"/>
<rect x="334" y="64" width="10" height="10" rx="2" class="sc-cell sc-l-0" style="animation-delay: 1.490s;"/>
<rect x="334" y="77" width="10" height="10" rx="2" class="sc-cell sc-l-0" style="animation-delay: 1.490s;"/>
<rect x="334" y="90" width="10" height="10" rx="2" class="sc-cell sc-l-0" style="animation-delay: 1.490s;"/>
<rect x="334" y="103" width="10" height="10" rx="2" class="sc-cell sc-l-0" style="animation-delay: 1.490s;"/>
<rect x="347" y="25" width="10" height="10" rx="2" class="sc-cell sc-l-0" style="animation-delay: 1.569s;"/>
<rect x="347" y="38" width="10" height="10" rx="2" class="sc-cell sc-l-0" style="animation-delay: 1.569s;"/>
<rect x="347" y="51" width="10" height="10" rx="2" class="sc-cell sc-l-0" style="animation-delay: 1.569s;"/>
<rect x="347" y="64" width="10" height="10" rx="2" class="sc-cell sc-l-0" style="animation-delay: 1.569s;"/>
<rect x="347" y="77" width="10" height="10" rx="2" class="sc-cell sc-l-0" style="animation-delay: 1.569s;"/>
<rect x="347" y="90" width="10" height="10" rx="2" class="sc-cell sc-l-0" style="animation-delay: 1.569s;"/>
<rect x="347" y="103" width="10" height="10" rx="2" class="sc-cell sc-l-0" style="animation-delay: 1.569s;"/>
<rect x="360" y="25" width="10" height="10" rx="2" class="sc-cell sc-l-0" style="animation-delay: 1.647s;"/>
<rect x="360" y="38" width="10" height="10" rx="2" class="sc-cell sc-l-0" style="animation-delay: 1.647s;"/>
<rect x="360" y="51" width="10" height="10" rx="2" class="sc-cell sc-l-0" style="animation-delay: 1.647s;"/>
<rect x="360" y="64" width="10" height="10" rx="2" class="sc-cell sc-l-0" style="animation-delay: 1.647s;"/>
<rect x="360" y="77" width="10" height="10" rx="2" class="sc-cell sc-l-0" style="animation-delay: 1.647s;"/>
<rect x="360" y="90" width="10" height="10" rx="2" class="sc-cell sc-l-0" style="animation-delay: 1.647s;"/>
<rect x="360" y="103" width="10" height="10" rx="2" class="sc-cell sc-l-0" style="animation-delay: 1.647s;"/>
<rect x="373" y="25" width="10" height="10" rx="2" class="sc-cell sc-l-0" style="animation-delay: 1.725s;"/>
<rect x="373" y="38" width="10" height="10" rx="2" class="sc-cell sc-l-0" style="animation-delay: 1.725s;"/>
<rect x="373" y="51" width="10" height="10" rx="2" class="sc-cell sc-l-0" style="animation-delay: 1.725s;"/>
<rect x="373" y="64" width="10" height="10" rx="2" class="sc-cell sc-l-0" style="animation-delay: 1.725s;"/>
<rect x="373" y="77" width="10" height="10" rx="2" class="sc-cell sc-l-0" style="animation-delay: 1.725s;"/>
<rect x="373" y="90" width="10" height="10" rx="2" class="sc-cell sc-l-0" style="animation-delay: 1.725s;"/>
<rect x="373" y="103" width="10" height="10" rx="2" class="sc-cell sc-l-0" style="animation-delay: 1.725s;"/>
<rect x="386" y="25" width="10" height="10" rx="2" class="sc-cell sc-l-4" style="animation-delay: 1.804s;"/>
<rect x="386" y="38" width="10" height="10" rx="2" class="sc-cell sc-l-4" style="animation-delay: 1.804s;"/>
<rect x="386" y="51" width="10" height="10" rx="2" class="sc-cell sc-l-4" style="animation-delay: 1.804s;"/>
<rect x="386" y="64" width="10" height="10" rx="2" class="sc-cell sc-l-3" style="animation-delay: 1.804s;"/>
<rect x="386" y="77" width="10" height="10" rx="2" class="sc-cell sc-l-3" style="animation-delay: 1.804s;"/>
<rect x="386" y="90" width="10" height="10" rx="2" class="sc-cell sc-l-4" style="animation-delay: 1.804s;"/>
<rect x="386" y="103" width="10" height="10" rx="2" class="sc-cell sc-l-4" style="animation-delay: 1.804s;"/>
<rect x="399" y="25" width="10" height="10" rx="2" class="sc-cell sc-l-1" style="animation-delay: 1.882s;"/>
<rect x="399" y="38" width="10" height="10" rx="2" class="sc-cell sc-l-1" style="animation-delay: 1.882s;"/>
<rect x="399" y="51" width="10" height="10" rx="2" class="sc-cell sc-l-3" style="animation-delay: 1.882s;"/>
<rect x="399" y="64" width="10" height="10" rx="2" class="sc-cell sc-l-1" style="animation-delay: 1.882s;"/>
<rect x="399" y="77" width="10" height="10" rx="2" class="sc-cell sc-l-1" style="animation-delay: 1.882s;"/>
<rect x="399" y="90" width="10" height="10" rx="2" class="sc-cell sc-l-0" style="animation-delay: 1.882s;"/>
<rect x="399" y="103" width="10" height="10" rx="2" class="sc-cell sc-l-1" style="animation-delay: 1.882s;"/>
<rect x="412" y="25" width="10" height="10" rx="2" class="sc-cell sc-l-3" style="animation-delay: 1.961s;"/>
<rect x="412" y="38" width="10" height="10" rx="2" class="sc-cell sc-l-4" style="animation-delay: 1.961s;"/>
<rect x="412" y="51" width="10" height="10" rx="2" class="sc-cell sc-l-2" style="animation-delay: 1.961s;"/>
<rect x="412" y="64" width="10" height="10" rx="2" class="sc-cell sc-l-1" style="animation-delay: 1.961s;"/>
<rect x="412" y="77" width="10" height="10" rx="2" class="sc-cell sc-l-3" style="animation-delay: 1.961s;"/>
<rect x="412" y="90" width="10" height="10" rx="2" class="sc-cell sc-l-4" style="animation-delay: 1.961s;"/>
<rect x="412" y="103" width="10" height="10" rx="2" class="sc-cell sc-l-2" style="animation-delay: 1.961s;"/>
<rect x="425" y="25" width="10" height="10" rx="2" class="sc-cell sc-l-0" style="animation-delay: 2.039s;"/>
<rect x="425" y="38" width="10" height="10" rx="2" class="sc-cell sc-l-0" style="animation-delay: 2.039s;"/>
<rect x="425" y="51" width="10" height="10" rx="2" class="sc-cell sc-l-0" style="animation-delay: 2.039s;"/>
<rect x="425" y="64" width="10" height="10" rx="2" class="sc-cell sc-l-0" style="animation-delay: 2.039s;"/>
<rect x="425" y="77" width="10" height="10" rx="2" class="sc-cell sc-l-1" style="animation-delay: 2.039s;"/>
<rect x="425" y="90" width="10" height="10" rx="2" class="sc-cell sc-l-0" style="animation-delay: 2.039s;"/>
<rect x="425" y="103" width="10" height="10" rx="2" class="sc-cell sc-l-3" style="animation-delay: 2.039s;"/>
<rect x="438" y="25" width="10" height="10" rx="2" class="sc-cell sc-l-0" style="animation-delay: 2.118s;"/>
<rect x="438" y="38" width="10" height="10" rx="2" class="sc-cell sc-l-0" style="animation-delay: 2.118s;"/>
<rect x="438" y="51" width="10" height="10" rx="2" class="sc-cell sc-l-0" style="animation-delay: 2.118s;"/>
<rect x="438" y="64" width="10" height="10" rx="2" class="sc-cell sc-l-0" style="animation-delay: 2.118s;"/>
<rect x="438" y="77" width="10" height="10" rx="2" class="sc-cell sc-l-0" style="animation-delay: 2.118s;"/>
<rect x="438" y="90" width="10" height="10" rx="2" class="sc-cell sc-l-0" style="animation-delay: 2.118s;"/>
<rect x="438" y="103" width="10" height="10" rx="2" class="sc-cell sc-l-0" style="animation-delay: 2.118s;"/>
<rect x="451" y="25" width="10" height="10" rx="2" class="sc-cell sc-l-0" style="animation-delay: 2.196s;"/>
<rect x="451" y="38" width="10" height="10" rx="2" class="sc-cell sc-l-0" style="animation-delay: 2.196s;"/>
<rect x="451" y="51" width="10" height="10" rx="2" class="sc-cell sc-l-0" style="animation-delay: 2.196s;"/>
<rect x="451" y="64" width="10" height="10" rx="2" class="sc-cell sc-l-0" style="animation-delay: 2.196s;"/>
<rect x="451" y="77" width="10" height="10" rx="2" class="sc-cell sc-l-0" style="animation-delay: 2.196s;"/>
<rect x="451" y="90" width="10" height="10" rx="2" class="sc-cell sc-l-0" style="animation-delay: 2.196s;"/>
<rect x="451" y="103" width="10" height="10" rx="2" class="sc-cell sc-l-0" style="animation-delay: 2.196s;"/>
<rect x="464" y="25" width="10" height="10" rx="2" class="sc-cell sc-l-0" style="animation-delay: 2.275s;"/>
<rect x="464" y="38" width="10" height="10" rx="2" class="sc-cell sc-l-0" style="animation-delay: 2.275s;"/>
<rect x="464" y="51" width="10" height="10" rx="2" class="sc-cell sc-l-0" style="animation-delay: 2.275s;"/>
<rect x="464" y="64" width="10" height="10" rx="2" class="sc-cell sc-l-0" style="animation-delay: 2.275s;"/>
<rect x="464" y="77" width="10" height="10" rx="2" class="sc-cell sc-l-0" style="animation-delay: 2.275s;"/>
<rect x="464" y="90" width="10" height="10" rx="2" class="sc-cell sc-l-0" style="animation-delay: 2.275s;"/>
<rect x="464" y="103" width="10" height="10" rx="2" class="sc-cell sc-l-0" style="animation-delay: 2.275s;"/>
<rect x="477" y="25" width="10" height="10" rx="2" class="sc-cell sc-l-0" style="animation-delay: 2.353s;"/>
<rect x="477" y="38" width="10" height="10" rx="2" class="sc-cell sc-l-0" style="animation-delay: 2.353s;"/>
<rect x="477" y="51" width="10" height="10" rx="2" class="sc-cell sc-l-0" style="animation-delay: 2.353s;"/>
<rect x="477" y="64" width="10" height="10" rx="2" class="sc-cell sc-l-0" style="animation-delay: 2.353s;"/>
<rect x="477" y="77" width="10" height="10" rx="2" class="sc-cell sc-l-0" style="animation-delay: 2.353s;"/>
<rect x="477" y="90" width="10" height="10" rx="2" class="sc-cell sc-l-0" style="animation-delay: 2.353s;"/>
<rect x="477" y="103" width="10" height="10" rx="2" class="sc-cell sc-l-0" style="animation-delay: 2.353s;"/>
<rect x="490" y="25" width="10" height="10" rx="2" class="sc-cell sc-l-0" style="animation-delay: 2.431s;"/>
<rect x="490" y="38" width="10" height="10" rx="2" class="sc-cell sc-l-0" style="animation-delay: 2.431s;"/>
<rect x="490" y="51" width="10" height="10" rx="2" class="sc-cell sc-l-0" style="animation-delay: 2.431s;"/>
<rect x="490" y="64" width="10" height="10" rx="2" class="sc-cell sc-l-0" style="animation-delay: 2.431s;"/>
<rect x="490" y="77" width="10" height="10" rx="2" class="sc-cell sc-l-0" style="animation-delay: 2.431s;"/>
<rect x="490" y="90" width="10" height="10" rx="2" class="sc-cell sc-l-0" style="animation-delay: 2.431s;"/>
<rect x="490" y="103" width="10" height="10" rx="2" class="sc-cell sc-l-0" style="animation-delay: 2.431s;"/>
<rect x="503" y="25" width="10" height="10" rx="2" class="sc-cell sc-l-0" style="animation-delay: 2.510s;"/>
<rect x="503" y="38" width="10" height="10" rx="2" class="sc-cell sc-l-0" style="animation-delay: 2.510s;"/>
<rect x="503" y="51" width="10" height="10" rx="2" class="sc-cell sc-l-0" style="animation-delay: 2.510s;"/>
<rect x="503" y="64" width="10" height="10" rx="2" class="sc-cell sc-l-0" style="animation-delay: 2.510s;"/>
<rect x="503" y="77" width="10" height="10" rx="2" class="sc-cell sc-l-0" style="animation-delay: 2.510s;"/>
<rect x="503" y="90" width="10" height="10" rx="2" class="sc-cell sc-l-0" style="animation-delay: 2.510s;"/>
<rect x="503" y="103" width="10" height="10" rx="2" class="sc-cell sc-l-0" style="animation-delay: 2.510s;"/>
<rect x="516" y="25" width="10" height="10" rx="2" class="sc-cell sc-l-0" style="animation-delay: 2.588s;"/>
<rect x="516" y="38" width="10" height="10" rx="2" class="sc-cell sc-l-0" style="animation-delay: 2.588s;"/>
<rect x="516" y="51" width="10" height="10" rx="2" class="sc-cell sc-l-0" style="animation-delay: 2.588s;"/>
<rect x="516" y="64" width="10" height="10" rx="2" class="sc-cell sc-l-0" style="animation-delay: 2.588s;"/>
<rect x="516" y="77" width="10" height="10" rx="2" class="sc-cell sc-l-0" style="animation-delay: 2.588s;"/>
<rect x="516" y="90" width="10" height="10" rx="2" class="sc-cell sc-l-0" style="animation-delay: 2.588s;"/>
<rect x="516" y="103" width="10" height="10" rx="2" class="sc-cell sc-l-0" style="animation-delay: 2.588s;"/>
<rect x="529" y="25" width="10" height="10" rx="2" class="sc-cell sc-l-0" style="animation-delay: 2.667s;"/>
<rect x="529" y="38" width="10" height="10" rx="2" class="sc-cell sc-l-0" style="animation-delay: 2.667s;"/>
<rect x="529" y="51" width="10" height="10" rx="2" class="sc-cell sc-l-1" style="animation-delay: 2.667s;"/>
<rect x="529" y="64" width="10" height="10" rx="2" class="sc-cell sc-l-0" style="animation-delay: 2.667s;"/>
<rect x="529" y="77" width="10" height="10" rx="2" class="sc-cell sc-l-2" style="animation-delay: 2.667s;"/>
<rect x="529" y="90" width="10" height="10" rx="2" class="sc-cell sc-l-0" style="animation-delay: 2.667s;"/>
<rect x="529" y="103" width="10" height="10" rx="2" class="sc-cell sc-l-0" style="animation-delay: 2.667s;"/>
<rect x="542" y="25" width="10" height="10" rx="2" class="sc-cell sc-l-0" style="animation-delay: 2.745s;"/>
<rect x="542" y="38" width="10" height="10" rx="2" class="sc-cell sc-l-0" style="animation-delay: 2.745s;"/>
<rect x="542" y="51" width="10" height="10" rx="2" class="sc-cell sc-l-1" style="animation-delay: 2.745s;"/>
<rect x="542" y="64" width="10" height="10" rx="2" class="sc-cell sc-l-1" style="animation-delay: 2.745s;"/>
<rect x="542" y="77" width="10" height="10" rx="2" class="sc-cell sc-l-1" style="animation-delay: 2.745s;"/>
<rect x="542" y="90" width="10" height="10" rx="2" class="sc-cell sc-l-1" style="animation-delay: 2.745s;"/>
<rect x="542" y="103" width="10" height="10" rx="2" class="sc-cell sc-l-0" style="animation-delay: 2.745s;"/>
<rect x="555" y="25" width="10" height="10" rx="2" class="sc-cell sc-l-0" style="animation-delay: 2.824s;"/>
<rect x="555" y="38" width="10" height="10" rx="2" class="sc-cell sc-l-0" style="animation-delay: 2.824s;"/>
<rect x="555" y="51" width="10" height="10" rx="2" class="sc-cell sc-l-0" style="animation-delay: 2.824s;"/>
<rect x="555" y="64" width="10" height="10" rx="2" class="sc-cell sc-l-0" style="animation-delay: 2.824s;"/>
<rect x="555" y="77" width="10" height="10" rx="2" class="sc-cell sc-l-0" style="animation-delay: 2.824s;"/>
<rect x="555" y="90" width="10" height="10" rx="2" class="sc-cell sc-l-0" style="animation-delay: 2.824s;"/>
<rect x="555" y="103" width="10" height="10" rx="2" class="sc-cell sc-l-0" style="animation-delay: 2.824s;"/>
<rect x="568" y="25" width="10" height="10" rx="2" class="sc-cell sc-l-0" style="animation-delay: 2.902s;"/>
<rect x="568" y="38" width="10" height="10" rx="2" class="sc-cell sc-l-0" style="animation-delay: 2.902s;"/>
<rect x="568" y="51" width="10" height="10" rx="2" class="sc-cell sc-l-0" style="animation-delay: 2.902s;"/>
<rect x="568" y="64" width="10" height="10" rx="2" class="sc-cell sc-l-0" style="animation-delay: 2.902s;"/>
<rect x="568" y="77" width="10" height="10" rx="2" class="sc-cell sc-l-0" style="animation-delay: 2.902s;"/>
<rect x="568" y="90" width="10" height="10" rx="2" class="sc-cell sc-l-0" style="animation-delay: 2.902s;"/>
<rect x="568" y="103" width="10" height="10" rx="2" class="sc-cell sc-l-0" style="animation-delay: 2.902s;"/>
<rect x="581" y="25" width="10" height="10" rx="2" class="sc-cell sc-l-0" style="animation-delay: 2.980s;"/>
<rect x="581" y="38" width="10" height="10" rx="2" class="sc-cell sc-l-0" style="animation-delay: 2.980s;"/>
<rect x="581" y="51" width="10" height="10" rx="2" class="sc-cell sc-l-0" style="animation-delay: 2.980s;"/>
<rect x="581" y="64" width="10" height="10" rx="2" class="sc-cell sc-l-0" style="animation-delay: 2.980s;"/>
<rect x="581" y="77" width="10" height="10" rx="2" class="sc-cell sc-l-0" style="animation-delay: 2.980s;"/>
<rect x="581" y="90" width="10" height="10" rx="2" class="sc-cell sc-l-0" style="animation-delay: 2.980s;"/>
<rect x="581" y="103" width="10" height="10" rx="2" class="sc-cell sc-l-0" style="animation-delay: 2.980s;"/>
<rect x="594" y="25" width="10" height="10" rx="2" class="sc-cell sc-l-0" style="animation-delay: 3.059s;"/>
<rect x="594" y="38" width="10" height="10" rx="2" class="sc-cell sc-l-0" style="animation-delay: 3.059s;"/>
<rect x="594" y="51" width="10" height="10" rx="2" class="sc-cell sc-l-0" style="animation-delay: 3.059s;"/>
<rect x="594" y="64" width="10" height="10" rx="2" class="sc-cell sc-l-0" style="animation-delay: 3.059s;"/>
<rect x="594" y="77" width="10" height="10" rx="2" class="sc-cell sc-l-0" style="animation-delay: 3.059s;"/>
<rect x="594" y="90" width="10" height="10" rx="2" class="sc-cell sc-l-0" style="animation-delay: 3.059s;"/>
<rect x="594" y="103" width="10" height="10" rx="2" class="sc-cell sc-l-0" style="animation-delay: 3.059s;"/>
<rect x="607" y="25" width="10" height="10" rx="2" class="sc-cell sc-l-0" style="animation-delay: 3.137s;"/>
<rect x="607" y="38" width="10" height="10" rx="2" class="sc-cell sc-l-1" style="animation-delay: 3.137s;"/>
<rect x="607" y="51" width="10" height="10" rx="2" class="sc-cell sc-l-2" style="animation-delay: 3.137s;"/>
<rect x="607" y="64" width="10" height="10" rx="2" class="sc-cell sc-l-0" style="animation-delay: 3.137s;"/>
<rect x="607" y="77" width="10" height="10" rx="2" class="sc-cell sc-l-0" style="animation-delay: 3.137s;"/>
<rect x="607" y="90" width="10" height="10" rx="2" class="sc-cell sc-l-0" style="animation-delay: 3.137s;"/>
<rect x="607" y="103" width="10" height="10" rx="2" class="sc-cell sc-l-0" style="animation-delay: 3.137s;"/>
<rect x="620" y="25" width="10" height="10" rx="2" class="sc-cell sc-l-0" style="animation-delay: 3.216s;"/>
<rect x="620" y="38" width="10" height="10" rx="2" class="sc-cell sc-l-0" style="animation-delay: 3.216s;"/>
<rect x="620" y="51" width="10" height="10" rx="2" class="sc-cell sc-l-0" style="animation-delay: 3.216s;"/>
<rect x="620" y="64" width="10" height="10" rx="2" class="sc-cell sc-l-0" style="animation-delay: 3.216s;"/>
<rect x="620" y="77" width="10" height="10" rx="2" class="sc-cell sc-l-0" style="animation-delay: 3.216s;"/>
<rect x="620" y="90" width="10" height="10" rx="2" class="sc-cell sc-l-0" style="animation-delay: 3.216s;"/>
<rect x="620" y="103" width="10" height="10" rx="2" class="sc-cell sc-l-3" style="animation-delay: 3.216s;"/>
<rect x="633" y="25" width="10" height="10" rx="2" class="sc-cell sc-l-0" style="animation-delay: 3.294s;"/>
<rect x="633" y="38" width="10" height="10" rx="2" class="sc-cell sc-l-2" style="animation-delay: 3.294s;"/>
<rect x="633" y="51" width="10" height="10" rx="2" class="sc-cell sc-l-4" style="animation-delay: 3.294s;"/>
<rect x="633" y="64" width="10" height="10" rx="2" class="sc-cell sc-l-2" style="animation-delay: 3.294s;"/>
<rect x="633" y="77" width="10" height="10" rx="2" class="sc-cell sc-l-3" style="animation-delay: 3.294s;"/>
<rect x="633" y="90" width="10" height="10" rx="2" class="sc-cell sc-l-2" style="animation-delay: 3.294s;"/>
<rect x="633" y="103" width="10" height="10" rx="2" class="sc-cell sc-l-3" style="animation-delay: 3.294s;"/>
<rect x="646" y="25" width="10" height="10" rx="2" class="sc-cell sc-l-2" style="animation-delay: 3.373s;"/>
<rect x="646" y="38" width="10" height="10" rx="2" class="sc-cell sc-l-1" style="animation-delay: 3.373s;"/>
<rect x="646" y="51" width="10" height="10" rx="2" class="sc-cell sc-l-0" style="animation-delay: 3.373s;"/>
<rect x="646" y="64" width="10" height="10" rx="2" class="sc-cell sc-l-2" style="animation-delay: 3.373s;"/>
<rect x="646" y="77" width="10" height="10" rx="2" class="sc-cell sc-l-3" style="animation-delay: 3.373s;"/>
<rect x="646" y="90" width="10" height="10" rx="2" class="sc-cell sc-l-4" style="animation-delay: 3.373s;"/>
<rect x="646" y="103" width="10" height="10" rx="2" class="sc-cell sc-l-3" style="animation-delay: 3.373s;"/>
<rect x="659" y="25" width="10" height="10" rx="2" class="sc-cell sc-l-4" style="animation-delay: 3.451s;"/>
<rect x="659" y="38" width="10" height="10" rx="2" class="sc-cell sc-l-4" style="animation-delay: 3.451s;"/>
<rect x="659" y="51" width="10" height="10" rx="2" class="sc-cell sc-l-3" style="animation-delay: 3.451s;"/>
<rect x="659" y="64" width="10" height="10" rx="2" class="sc-cell sc-l-3" style="animation-delay: 3.451s;"/>
<rect x="659" y="77" width="10" height="10" rx="2" class="sc-cell sc-l-1" style="animation-delay: 3.451s;"/>
<rect x="659" y="90" width="10" height="10" rx="2" class="sc-cell sc-l-0" style="animation-delay: 3.451s;"/>
<rect x="659" y="103" width="10" height="10" rx="2" class="sc-cell sc-l-1" style="animation-delay: 3.451s;"/>
<rect x="672" y="25" width="10" height="10" rx="2" class="sc-cell sc-l-1" style="animation-delay: 3.529s;"/>
<rect x="672" y="38" width="10" height="10" rx="2" class="sc-cell sc-l-1" style="animation-delay: 3.529s;"/>
<rect x="672" y="51" width="10" height="10" rx="2" class="sc-cell sc-l-1" style="animation-delay: 3.529s;"/>
<rect x="672" y="64" width="10" height="10" rx="2" class="sc-cell sc-l-0" style="animation-delay: 3.529s;"/>
<rect x="672" y="77" width="10" height="10" rx="2" class="sc-cell sc-l-0" style="animation-delay: 3.529s;"/>
<rect x="672" y="90" width="10" height="10" rx="2" class="sc-cell sc-l-0" style="animation-delay: 3.529s;"/>
<rect x="672" y="103" width="10" height="10" rx="2" class="sc-cell sc-l-1" style="animation-delay: 3.529s;"/>
<rect x="685" y="25" width="10" height="10" rx="2" class="sc-cell sc-l-1" style="animation-delay: 3.608s;"/>
<rect x="685" y="38" width="10" height="10" rx="2" class="sc-cell sc-l-2" style="animation-delay: 3.608s;"/>
<rect x="685" y="51" width="10" height="10" rx="2" class="sc-cell sc-l-2" style="animation-delay: 3.608s;"/>
<rect x="685" y="64" width="10" height="10" rx="2" class="sc-cell sc-l-1" style="animation-delay: 3.608s;"/>
<rect x="685" y="77" width="10" height="10" rx="2" class="sc-cell sc-l-1" style="animation-delay: 3.608s;"/>
<rect x="685" y="90" width="10" height="10" rx="2" class="sc-cell sc-l-1" style="animation-delay: 3.608s;"/>
<rect x="685" y="103" width="10" height="10" rx="2" class="sc-cell sc-l-4" style="animation-delay: 3.608s;"/>
<rect x="698" y="25" width="10" height="10" rx="2" class="sc-cell sc-l-1" style="animation-delay: 3.686s;"/>
<rect x="698" y="38" width="10" height="10" rx="2" class="sc-cell sc-l-0" style="animation-delay: 3.686s;"/>
<rect x="698" y="51" width="10" height="10" rx="2" class="sc-cell sc-l-0" style="animation-delay: 3.686s;"/>
<rect x="698" y="64" width="10" height="10" rx="2" class="sc-cell sc-l-3" style="animation-delay: 3.686s;"/>
<rect x="698" y="77" width="10" height="10" rx="2" class="sc-cell sc-l-4" style="animation-delay: 3.686s;"/>
<rect x="698" y="90" width="10" height="10" rx="2" class="sc-cell sc-l-1" style="animation-delay: 3.686s;"/>
<rect x="698" y="103" width="10" height="10" rx="2" class="sc-cell sc-l-1" style="animation-delay: 3.686s;"/>
<rect x="711" y="25" width="10" height="10" rx="2" class="sc-cell sc-l-3" style="animation-delay: 3.765s;"/>
<rect x="711" y="38" width="10" height="10" rx="2" class="sc-cell sc-l-0" style="animation-delay: 3.765s;"/>
<rect x="711" y="51" width="10" height="10" rx="2" class="sc-cell sc-l-0" style="animation-delay: 3.765s;"/>
<rect x="711" y="64" width="10" height="10" rx="2" class="sc-cell sc-l-0" style="animation-delay: 3.765s;"/>
<rect x="711" y="77" width="10" height="10" rx="2" class="sc-cell sc-l-4" style="animation-delay: 3.765s;"/>
<rect x="711" y="90" width="10" height="10" rx="2" class="sc-cell sc-l-3" style="animation-delay: 3.765s;"/>
<rect x="711" y="103" width="10" height="10" rx="2" class="sc-cell sc-l-4" style="animation-delay: 3.765s;"/>
<rect x="724" y="25" width="10" height="10" rx="2" class="sc-cell sc-l-4" style="animation-delay: 3.843s;"/>
<rect x="724" y="38" width="10" height="10" rx="2" class="sc-cell sc-l-3" style="animation-delay: 3.843s;"/>
<rect x="724" y="51" width="10" height="10" rx="2" class="sc-cell sc-l-4" style="animation-delay: 3.843s;"/>
<rect x="724" y="64" width="10" height="10" rx="2" class="sc-cell sc-l-0" style="animation-delay: 3.843s;"/>
<rect x="724" y="77" width="10" height="10" rx="2" class="sc-cell sc-l-0" style="animation-delay: 3.843s;"/>
<rect x="724" y="90" width="10" height="10" rx="2" class="sc-cell sc-l-3" style="animation-delay: 3.843s;"/>
<rect x="724" y="103" width="10" height="10" rx="2" class="sc-cell sc-l-3" style="animation-delay: 3.843s;"/>
<rect x="737" y="25" width="10" height="10" rx="2" class="sc-cell sc-l-0" style="animation-delay: 3.922s;"/>
<rect x="737" y="38" width="10" height="10" rx="2" class="sc-cell sc-l-0" style="animation-delay: 3.922s;"/>
<rect x="737" y="51" width="10" height="10" rx="2" class="sc-cell sc-l-0" style="animation-delay: 3.922s;"/>
<rect x="737" y="64" width="10" height="10" rx="2" class="sc-cell sc-l-0" style="animation-delay: 3.922s;"/>
<rect x="737" y="77" width="10" height="10" rx="2" class="sc-cell sc-l-0" style="animation-delay: 3.922s;"/>
<rect x="737" y="90" width="10" height="10" rx="2" class="sc-cell sc-l-0" style="animation-delay: 3.922s;"/>
<rect x="737" y="103" width="10" height="10" rx="2" class="sc-cell sc-l-0" style="animation-delay: 3.922s;"/>
<rect x="750" y="25" width="10" height="10" rx="2" class="sc-cell sc-l-0" style="animation-delay: 4.000s;"/>
<rect x="750" y="38" width="10" height="10" rx="2" class="sc-cell sc-l-0" style="animation-delay: 4.000s;"/>
<rect x="750" y="51" width="10" height="10" rx="2" class="sc-cell sc-l-3" style="animation-delay: 4.000s;"/>
<rect x="750" y="64" width="10" height="10" rx="2" class="sc-cell sc-l-0" style="animation-delay: 4.000s;"/>
<rect x="750" y="77" width="10" height="10" rx="2" class="sc-cell sc-l-4" style="animation-delay: 4.000s;"/>

  </g>

  <g transform="translate(87, 25)">
    <g class="sc-beam">
      <rect fill="url(#sc-grad)" x="-30" y="0" width="30" height="88" />
      <rect fill="#fff" x="-1" y="0" width="2" height="88" rx="1" />
      <circle fill="#00FFAA" cx="0" cy="0" r="3" />
      <circle fill="#00FFAA" cx="0" cy="88" r="3" />
    </g>
  </g>
</svg>